# xmcd
#
# Track frame offsets:
#	150
#	16578
#	31713
#	49470
#	70107
#	84179
#	99081
#	117673
#	136417
#	148128
#	161912
#
# Disc length: 2397 seconds
#
# Revision: 1
# Processed by: cddbd v1.4PL0 Copyright (c) Steve Scherf et al.
# Submitted via: EasyCDDAExtractor 6.0.0.1
#
DISCID=8c095b0b
DTITLE=Rascal Flatts - Melt
DYEAR=2003
DGENRE=Country
TTITLE0=These Days
TTITLE1=Tood Good Is True
TTITLE2=Melt
TTITLE3=Mayberry
TTITLE4=Love You Out Loud
TTITLE5=Dry County Girl
TTITLE6=Like I Am
TTITLE7=You
TTITLE8=Fallin' Upside Down
TTITLE9=Shine On
TTITLE10=My Worst Fear
EXTD=
EXTT0=
EXTT1=
EXTT2=
EXTT3=
EXTT4=
EXTT5=
EXTT6=
EXTT7=
EXTT8=
EXTT9=
EXTT10=
PLAYORDER=
